<svg width="32" height="32" viewBox="0 0 32 32" fill="none" xmlns="http://www.w3.org/2000/svg">
<path d="M28.0006 16.0006C28.0006 16.2658 27.8952 16.5201 27.7077 16.7077C27.5201 16.8952 27.2658 17.0006 27.0006 17.0006H16.0006C15.7353 17.0006 15.481 16.8952 15.2934 16.7077C15.1059 16.5201 15.0006 16.2658 15.0006 16.0006C15.0006 15.7353 15.1059 15.481 15.2934 15.2934C15.481 15.1059 15.7353 15.0006 16.0006 15.0006H27.0006C27.2658 15.0006 27.5201 15.1059 27.7077 15.2934C27.8952 15.481 28.0006 15.7353 28.0006 16.0006ZM16.0006 9.00056H27.0006C27.2658 9.00056 27.5201 8.8952 27.7077 8.70766C27.8952 8.52013 28.0006 8.26577 28.0006 8.00056C28.0006 7.73534 27.8952 7.48099 27.7077 7.29345C27.5201 7.10591 27.2658 7.00056 27.0006 7.00056H16.0006C15.7353 7.00056 15.481 7.10591 15.2934 7.29345C15.1059 7.48099 15.0006 7.73534 15.0006 8.00056C15.0006 8.26577 15.1059 8.52013 15.2934 8.70766C15.481 8.8952 15.7353 9.00056 16.0006 9.00056ZM27.0006 23.0006H16.0006C15.7353 23.0006 15.481 23.1059 15.2934 23.2934C15.1059 23.481 15.0006 23.7353 15.0006 24.0006C15.0006 24.2658 15.1059 24.5201 15.2934 24.7077C15.481 24.8952 15.7353 25.0006 16.0006 25.0006H27.0006C27.2658 25.0006 27.5201 24.8952 27.7077 24.7077C27.8952 24.5201 28.0006 24.2658 28.0006 24.0006C28.0006 23.7353 27.8952 23.481 27.7077 23.2934C27.5201 23.1059 27.2658 23.0006 27.0006 23.0006ZM10.2931 5.29306L7.00056 8.58681L5.70806 7.29306C5.52042 7.10542 5.26592 7 5.00056 7C4.73519 7 4.4807 7.10542 4.29306 7.29306C4.10542 7.4807 4 7.73519 4 8.00056C4 8.26592 4.10542 8.52042 4.29306 8.70806L6.29306 10.7081C6.38593 10.801 6.49622 10.8748 6.61762 10.9251C6.73901 10.9754 6.86914 11.0013 7.00056 11.0013C7.13197 11.0013 7.2621 10.9754 7.3835 10.9251C7.50489 10.8748 7.61518 10.801 7.70806 10.7081L11.7081 6.70806C11.8957 6.52042 12.0011 6.26592 12.0011 6.00056C12.0011 5.73519 11.8957 5.4807 11.7081 5.29306C11.5204 5.10542 11.2659 5 11.0006 5C10.7352 5 10.4807 5.10542 10.2931 5.29306ZM10.2931 13.2931L7.00056 16.5868L5.70806 15.2931C5.52042 15.1054 5.26592 15 5.00056 15C4.73519 15 4.4807 15.1054 4.29306 15.2931C4.10542 15.4807 4 15.7352 4 16.0006C4 16.132 4.02588 16.2621 4.07616 16.3835C4.12645 16.5048 4.20015 16.6151 4.29306 16.7081L6.29306 18.7081C6.38593 18.801 6.49622 18.8748 6.61762 18.9251C6.73901 18.9754 6.86914 19.0013 7.00056 19.0013C7.13197 19.0013 7.2621 18.9754 7.3835 18.9251C7.50489 18.8748 7.61518 18.801 7.70806 18.7081L11.7081 14.7081C11.8957 14.5204 12.0011 14.2659 12.0011 14.0006C12.0011 13.7352 11.8957 13.4807 11.7081 13.2931C11.5204 13.1054 11.2659 13 11.0006 13C10.7352 13 10.4807 13.1054 10.2931 13.2931ZM10.2931 21.2931L7.00056 24.5868L5.70806 23.2931C5.61515 23.2001 5.50485 23.1264 5.38345 23.0762C5.26206 23.0259 5.13195 23 5.00056 23C4.86916 23 4.73905 23.0259 4.61766 23.0762C4.49627 23.1264 4.38597 23.2001 4.29306 23.2931C4.20015 23.386 4.12645 23.4963 4.07616 23.6177C4.02588 23.7391 4 23.8692 4 24.0006C4 24.132 4.02588 24.2621 4.07616 24.3835C4.12645 24.5048 4.20015 24.6151 4.29306 24.7081L6.29306 26.7081C6.38593 26.801 6.49622 26.8748 6.61762 26.9251C6.73901 26.9754 6.86914 27.0013 7.00056 27.0013C7.13197 27.0013 7.2621 26.9754 7.3835 26.9251C7.50489 26.8748 7.61518 26.801 7.70806 26.7081L11.7081 22.7081C11.8957 22.5204 12.0011 22.2659 12.0011 22.0006C12.0011 21.7352 11.8957 21.4807 11.7081 21.2931C11.5204 21.1054 11.2659 21 11.0006 21C10.7352 21 10.4807 21.1054 10.2931 21.2931Z" fill="black"/>
</svg>
